<svg version="1.1" xmlns="http://www.w3.org/2000/svg" xmlns:xlink="http://www.w3.org/1999/xlink" x="0px" y="0px"
	 viewBox="0 0 662.1 199.3" style="enable-background:new 0 0 662.1 199.3;" xml:space="preserve">
<title>callpage_logo_new</title>
<path style="fill:#171717;" d="M181.6,125.9c-6.5-5.6-9.8-14.7-9.8-27.3c0-12.9,3.2-22.2,9.6-28S196,62,205.9,62
	c7.3,0,14.6,1.4,21.3,4.2v13c-7-3-13.4-4.4-19.2-4.4c-7.3,0-12.7,1.8-16.3,5.5c-3.6,3.6-5.4,9.4-5.4,17.4c0,8.3,1.8,14.4,5.3,18.2
	c3.5,3.8,9.1,5.7,16.9,5.7c6.6-0.1,13.1-1.6,19-4.6v13c-6.7,3-14,4.5-21.3,4.4C196.3,134.4,188.1,131.6,181.6,125.9z"/>
<path style="fill:#171717;" d="M293.5,67.4c5.3,3.6,7.9,9.5,7.8,17.7v33.2c0,6.3-2.8,10.6-8.3,13.1c-5.5,2.4-13.4,3.7-23.7,3.7
	c-8.2,0-15-1.7-20.3-5.1s-8-9.1-8-17.2c0-7.6,2.2-13.2,6.6-17c4.4-3.8,10.6-5.7,18.6-5.7c8.3,0,15.2,1.7,20.8,5v-6.7
	c0-9.4-5.7-14.1-17-14.1c-4.1,0-8.2,0.6-12.2,1.9c-3.7,1.1-7.1,2.8-10.1,5.2V67.8c2.6-1.7,6.4-3,11.3-4.2c5-1.1,10.1-1.6,15.2-1.6
	C281.7,62,288.2,63.8,293.5,67.4z M283.3,122.4c2.2-0.6,3.7-2.7,3.6-5v-13.4c-4.9-2.1-10.2-3.1-15.5-3c-5.3,0-9.3,0.9-12,2.8
	s-4.1,4.6-4.1,8.3c-0.2,3.5,1.6,6.9,4.6,8.7c3.3,2,7.1,3,11,2.9C276.8,123.7,280.9,123.3,283.3,122.4L283.3,122.4z"/>
<path style="fill:#171717;" d="M314.9,135.5V37.2h14.4v98.3H314.9z"/>
<path style="fill:#171717;" d="M342.8,135.5V37.2h14.4v98.3H342.8z"/>
<path style="fill:#171717;" d="M425.3,70.7c6.1,5.9,9.2,15.5,9.2,28.8c0,10.9-2.8,19.5-8.5,25.9c-5.6,6.4-13.5,9.6-23.7,9.5
	c-2.9-0.1-5.8-0.4-8.6-1c-3-0.6-6-1.5-8.7-2.9v29.8h-14.4V76.9c0-5.3,3-9.1,8.9-11.5c6-2.4,13.1-3.6,21.4-3.6
	C411.1,61.8,419.1,64.8,425.3,70.7z M414.6,116.6c3.4-4,5.1-9.8,5.1-17.4c0-7.8-1.4-13.9-4.2-18.3s-7.8-6.5-15-6.5
	c-3.8-0.1-7.6,0.4-11.2,1.6c-2.8,1-4.2,2.4-4.2,4.2v38.4c4.4,2.6,9.5,4,14.7,4C406.3,122.6,411.3,120.6,414.6,116.6z"/>
<path style="fill:#171717;" d="M500.7,67.4c5.3,3.6,7.9,9.5,7.8,17.7v33.2c0,6.3-2.8,10.6-8.3,13.1c-5.5,2.4-13.4,3.7-23.7,3.7
	c-8.2,0-15-1.7-20.4-5.1c-5.3-3.4-8-9.1-8-17.2c0-7.6,2.2-13.2,6.6-17s10.6-5.7,18.6-5.7c8.3,0,15.2,1.7,20.8,5v-6.7
	c0-9.4-5.7-14.1-17-14.1c-4.1,0-8.2,0.6-12.2,1.9c-3.7,1.1-7.1,2.8-10.1,5.2V67.8c2.6-1.7,6.4-3,11.3-4.2c5-1.1,10.1-1.7,15.2-1.6
	C489,62,495.4,63.8,500.7,67.4z M490.5,122.4c2.2-0.6,3.7-2.7,3.6-5v-13.4c-4.9-2.1-10.2-3.1-15.5-3c-5.3,0-9.3,0.9-12,2.8
	s-4.1,4.6-4.1,8.3c-0.2,3.5,1.6,6.9,4.6,8.7c3.3,2,7.1,3,11,2.9C484,123.7,488.1,123.3,490.5,122.4L490.5,122.4z"/>
<path style="fill:#171717;" d="M577.6,66.6c4.9,2.7,7.9,7.9,7.7,13.4v55.1c0,7.9-2.6,14.4-7.8,19.4s-13.4,7.5-24.6,7.5
	c-7.6,0.1-15.2-1.2-22.4-3.7v-13.3c6.8,2.7,14,4.1,21.3,4.3c7.4,0,12.4-1.3,15.1-3.9c2.7-2.8,4.2-6.6,4-10.4v-4.7
	c-2.8,1.5-5.7,2.7-8.8,3.6c-3,0.9-6.2,1.4-9.3,1.4c-10.2-0.2-17.9-3.3-23.2-9.3c-5.3-6-8-14.5-8-25.6c0-14.4,3.3-24.4,10-29.9
	c6.7-5.5,15.5-8.3,26.6-8.3C566,62,572.4,63.5,577.6,66.6z M541.1,116.9c3.1,4.2,7.8,6.3,14,6.3c5.5,0.1,11-1.3,15.8-4V82.8
	c0-3.2-1.2-5.4-3.7-6.7c-3.1-1.3-6.5-1.9-9.9-1.8c-7.8,0-13.3,2.3-16.3,6.8c-3,4.5-4.6,10.8-4.6,18.7
	C536.4,107,538,112.7,541.1,116.9L541.1,116.9z"/>
<path style="fill:#171717;" d="M654.7,72.3c5,7,7.5,16.7,7.4,29.3h-48.7c0.5,6.8,2.5,12,6,15.6s8.6,5.3,15.2,5.3
	c4.1,0,8.2-0.5,12.2-1.6c3.6-0.9,7-2.3,10.3-4.1v13.6c-7.8,3.3-16.3,4.9-24.8,4.7c-10.4,0-18.6-3.2-24.6-9.5
	c-5.9-6.3-8.9-15.3-8.9-26.9c0-11.9,2.8-21,8.4-27.3c5.6-6.3,13.6-9.5,23.8-9.5C641.8,61.8,649.7,65.3,654.7,72.3z M619.1,77.6
	c-2.8,2.6-4.6,7-5.4,13.2h33.6c-0.7-5.9-2.3-10.2-5-12.9c-2.7-2.7-6.6-4.1-11.8-4.1C625.6,73.8,621.8,75,619.1,77.6z"/>
<path style="fill:#FF4800;" d="M146,29.8l-1.8-1.2c-5.6-3.9-11.6-7.1-17.9-9.5C86,3.5,40.4,20.8,20.6,59.2c-1.1,2.2-3.5,6.8-4.1,8.5
	c-0.1,0.4-0.3,0.7-0.5,1.1c-1.7,2.8-5.1,3.9-8.1,2.8c-3.5-1.4-4.9-5.1-3.5-8.8C19.9,22.4,61.5-4,105.7,0.5l0.9,0.6l-0.8-0.6
	c17.7,1.8,34.5,8.4,48.7,19c2.7,2.6,2.8,6.8,0.2,9.5C152.4,31.4,148.7,31.8,146,29.8"/>
<g>
	<defs>
		<path id="SVGID_1_" d="M146,29.8l-1.8-1.2c-5.6-3.9-11.6-7.1-17.9-9.5C86,3.5,40.4,20.8,20.6,59.2c-1.1,2.2-3.5,6.8-4.1,8.5
			c-0.1,0.4-0.3,0.7-0.5,1.1c-1.7,2.8-5.1,3.9-8.1,2.8c-3.5-1.4-4.9-5.1-3.5-8.8C19.9,22.4,61.5-4,105.7,0.5l0.9,0.6l-0.8-0.6
			c17.7,1.8,34.5,8.4,48.7,19c2.7,2.6,2.8,6.8,0.2,9.5C152.4,31.4,148.7,31.8,146,29.8"/>
	</defs>
	<clipPath id="SVGID_2_">
		<use xlink:href="#SVGID_1_"  style="overflow:visible;"/>
	</clipPath>
	<g style="clip-path:url(#SVGID_2_);">
		
			<rect x="23.9" y="-57.7" transform="matrix(0.1068 -0.9943 0.9943 0.1068 41.3352 101.8932)" style="fill:#FF4800;" width="106.9" height="171.3"/>
	</g>
</g>
<path style="fill:#FF4800;" d="M95.5,41.5c-33,1.4-58.6,29.4-57.2,62.4c0.4,10.1,3.4,19.9,8.7,28.5c0.3,0.4,0.5,0.9,0.8,1.3
	c0.8,1.4,1.1,3.1,0.7,4.7c-0.8,3.6-4.4,5.9-8,5.1c-1.7-0.4-3.3-1.4-4.2-3l-0.8-1.2c-0.1-0.1-0.2-0.3-0.3-0.4
	c-6.3-10.5-9.9-22.3-10.4-34.5c-0.1-2.3-0.1-4.5,0-6.7c1.7-35.3,28.4-64.3,63.3-69c2.2-0.3,4.4-0.5,6.7-0.6
	c12.4-0.5,24.7,2.1,35.7,7.6l1.3,0.7c3.2,1.9,4.3,6,2.4,9.2c-1.7,2.9-5.2,4.1-8.3,2.8c-0.4-0.2-0.9-0.5-1.3-0.7
	C115.6,43.1,105.6,41,95.5,41.5"/>
<path style="fill:#FF4800;" d="M38.6,161.5c0.7,0.7,1.4,1.4,2.2,2.1c7.6,7,16.4,12.5,26,16.4h0.1c9.1,3.6,18.8,5.6,28.6,5.9
	c1.3,0,2.7,0,4,0c0.7,0,1.5,0,2.2-0.1c9.9-0.4,19.6-2.6,28.7-6.3l0.4-0.2c3.9-1.6,7.7-3.6,11.3-5.8l0.4-0.2c3.4-2,7.9-2.3,10.3,1.4
	c2,3.1,1.1,7.3-2.1,9.3c-16.5,10.6-35.9,15.9-55.5,15.3H95c-16-0.5-31.7-4.9-45.6-12.8l0,0C18,168.4-1,134.5,0.1,98.3
	c0.2-3.7,3.3-6.6,7-6.4c3.5,0.2,6.3,3,6.4,6.5c-0.1,3,0,5.9,0.2,8.9c1.1,15.1,6.2,29.6,14.8,42l0,0.1c2.4,3.5,5.1,6.8,8,9.9
	C37.1,160,37.9,160.7,38.6,161.5"/>
<g>
	<defs>
		<path id="SVGID_3_" d="M38.6,161.5c0.7,0.7,1.4,1.4,2.2,2.1c7.6,7,16.4,12.5,26,16.4h0.1c9.1,3.6,18.8,5.6,28.6,5.9
			c1.3,0,2.7,0,4,0c0.7,0,1.5,0,2.2-0.1c9.9-0.4,19.6-2.6,28.7-6.3l0.4-0.2c3.9-1.6,7.7-3.6,11.3-5.8l0.4-0.2
			c3.4-2,7.9-2.3,10.3,1.4c2,3.1,1.1,7.3-2.1,9.3c-16.5,10.6-35.9,15.9-55.5,15.3H95c-16-0.5-31.7-4.9-45.6-12.8l0,0
			C18,168.4-1,134.5,0.1,98.3c0.2-3.7,3.3-6.6,7-6.4c3.5,0.2,6.3,3,6.4,6.5c-0.1,3,0,5.9,0.2,8.9c1.1,15.1,6.2,29.6,14.8,42l0,0.1
			c2.4,3.5,5.1,6.8,8,9.9C37.1,160,37.9,160.7,38.6,161.5"/>
	</defs>
	<clipPath id="SVGID_4_">
		<use xlink:href="#SVGID_3_"  style="overflow:visible;"/>
	</clipPath>
	<g style="clip-path:url(#SVGID_4_);">
		
			<rect x="2.3" y="55.8" transform="matrix(0.217 -0.9762 0.9762 0.217 -81.4273 187.7594)" style="fill:#FF4800;" width="148.1" height="177.6"/>
	</g>
</g>
<path style="fill:#FF4800;" d="M97.7,161.3c17.4,0.1,33.9-7.4,45.4-20.5c3-2.2,7.2-1.5,9.4,1.5c1.9,2.6,1.7,6.1-0.5,8.4l-1,1.1
	l-0.3,0.4c-8.5,8.8-19,15.3-30.7,19c-2.2,0.7-4.3,1.3-6.5,1.7c-18.5,4-37.8,0.7-53.9-9.2c-2.6-2.6-2.6-6.9,0.1-9.5
	c2.1-2,5.2-2.5,7.8-1.2l1.3,0.8C77.6,158.7,87.6,161.3,97.7,161.3"/>
<g>
	<defs>
		<path id="SVGID_5_" d="M97.7,161.3c17.4,0.1,33.9-7.4,45.4-20.5c3-2.2,7.2-1.5,9.4,1.5c1.9,2.6,1.7,6.1-0.5,8.4l-1,1.1l-0.3,0.4
			c-8.5,8.8-19,15.3-30.7,19c-2.2,0.7-4.3,1.3-6.5,1.7c-18.5,4-37.8,0.7-53.9-9.2c-2.6-2.6-2.6-6.9,0.1-9.5c2.1-2,5.2-2.5,7.8-1.2
			l1.3,0.8C77.6,158.7,87.6,161.3,97.7,161.3"/>
	</defs>
	<clipPath id="SVGID_6_">
		<use xlink:href="#SVGID_5_"  style="overflow:visible;"/>
	</clipPath>
	<g style="clip-path:url(#SVGID_6_);">
		
			<rect x="76.5" y="107.1" transform="matrix(0.217 -0.9762 0.9762 0.217 -71.9576 227.9102)" style="fill:#FF4800;" width="59.2" height="103.5"/>
	</g>
</g>
<path style="fill:#FF4800;" d="M97.4,55.3c-24.9,0-45,20.1-45,45s20.1,45,45,45s45-20.1,45-45v0C142.4,75.4,122.2,55.3,97.4,55.3z
	 M97.4,132.3c-17.7,0-32-14.3-32-32s14.3-32,32-32s32,14.3,32,32v0C129.4,117.9,115,132.3,97.4,132.3z"/>
<path style="fill:#FF4800;stroke:#FF4800;stroke-width:2;stroke-miterlimit:10;" d="M114.7,110.7l-0.2-0.5c-0.5-1.3-1.6-2.4-3-2.8
	l-4.6-1.3c-1.4-0.3-2.9,0.1-3.9,1l-1.7,1.7c-6-1.6-10.8-6.3-12.4-12.4l1.7-1.7c0.9-1.1,1.3-2.5,1-3.9l-1.3-4.6
	c-0.5-1.4-1.5-2.5-2.8-3L87,82.9c-1.4-0.4-2.8,0-3.9,0.9l-2.5,2.5c-0.4,0.5-0.6,1.1-0.8,1.7c-0.2,16.2,12.8,29.5,29.1,29.7
	c0.2,0,0.4,0,0.6,0c0.6-0.1,1.2-0.4,1.8-0.7l2.5-2.5C114.7,113.5,115.1,112,114.7,110.7z"/>
</svg>
